HIERARCHY
ROOT Hips
{
  OFFSET -35.4901 99.2528 17.4586
  CHANNELS 6 Xposition Yposition Zposition Zrotation Xrotation Yrotation
  JOINT LeftUpLeg
  {
    OFFSET 8.64259 1.95398 -2.38835
    CHANNELS 3 Zrotation Xrotation Yrotation
    JOINT LeftLeg
    {
      OFFSET 43.7702 0 0
      CHANNELS 3 Zrotation Xrotation Yrotation
      JOINT LeftFoot
      {
        OFFSET 40.6238 0 0
        CHANNELS 3 Zrotation Xrotation Yrotation
        JOINT LeftToeBase
        {
          OFFSET 12.7242 0 0
          CHANNELS 3 Zrotation Xrotation Yrotation
          End Site
          {
            OFFSET 0 0 0
          }
        }
      }
    }
  }
  JOINT RightUpLeg
  {
    OFFSET -8.2249 1.95398 -2.59336
    CHANNELS 3 Zrotation Xrotation Yrotation
    JOINT RightLeg
    {
      OFFSET 43.5653 0 0
      CHANNELS 3 Zrotation Xrotation Yrotation
      JOINT RightFoot
      {
        OFFSET 40.6238 0 0
        CHANNELS 3 Zrotation Xrotation Yrotation
        JOINT RightToeBase
        {
          OFFSET 12.7242 0 0
          CHANNELS 3 Zrotation Xrotation Yrotation
          End Site
          {
            OFFSET 0 0 0
          }
        }
      }
    }
  }
  JOINT Spine
  {
    OFFSET 0.165834 0.87714 6.61349
    CHANNELS 3 Zrotation Xrotation Yrotation
    JOINT Spine1
    {
      OFFSET 7.38963 1.71661e-005 0
      CHANNELS 3 Zrotation Xrotation Yrotation
      JOINT Spine2
      {
        OFFSET 11.9445 1.14441e-005 0
        CHANNELS 3 Zrotation Xrotation Yrotation
        JOINT Spine3
        {
          OFFSET 14.7254 4.19617e-005 0
          CHANNELS 3 Zrotation Xrotation Yrotation
          JOINT Spine4
          {
            OFFSET 10.9679 0 0
            CHANNELS 3 Zrotation Xrotation Yrotation
            JOINT RightShoulder
            {
              OFFSET 2.46616 -1.6653 3.69651
              CHANNELS 3 Zrotation Xrotation Yrotation
              JOINT RightArm
              {
                OFFSET 13.0012 0 0
                CHANNELS 3 Zrotation Xrotation Yrotation
                JOINT RightForeArm
                {
                  OFFSET 28.7848 1.52588e-005 0
                  CHANNELS 3 Zrotation Xrotation Yrotation
                  JOINT RightHand
                  {
                    OFFSET 26.5688 1.52588e-005 0
                    CHANNELS 3 Zrotation Xrotation Yrotation
                    End Site
                    {
                      OFFSET 0 0 0
                    }
                  }
                }
              }
            }
            JOINT LeftShoulder
            {
              OFFSET 2.38034 -1.29275 -3.7523
              CHANNELS 3 Zrotation Xrotation Yrotation
              JOINT LeftArm
              {
                OFFSET 16.3182 6.10351e-005 0
                CHANNELS 3 Zrotation Xrotation Yrotation
                JOINT LeftForeArm
                {
                  OFFSET 27.0901 0 0
                  CHANNELS 3 Zrotation Xrotation Yrotation
                  JOINT LeftHand
                  {
                    OFFSET 24.5451 1.52588e-005 0
                    CHANNELS 3 Zrotation Xrotation Yrotation
                    End Site
                    {
                      OFFSET 0 0 0
                    }
                  }
                }
              }
            }
            JOINT Neck
            {
              OFFSET 5.0226 -0.0266342 0
              CHANNELS 3 Zrotation Xrotation Yrotation
              JOINT Head
              {
                OFFSET 6.69364 2.86102e-005 0
                CHANNELS 3 Zrotation Xrotation Yrotation
                End Site
                {
                  OFFSET 0 0 0
                }
              }
            }
          }
        }
      }
    }
  }
}
MOTION
Frames:	10
Frame Time:	0.0416667
-265.393 98.3032 -250.528 -100.481 -57.0991 -98.7626 -176.676 -2.52853 91.8657 -17.2344 5.47154 1.22702 69.5307 3.99518 -1.55777 29.803 2.41228 -4.25433 169.966 -4.92974 86.7344 -9.17005 -15.1458 -1.46364 68.008 -4.6243 0.283288 20.2607 -1.12912 3.51759 0.380579 7.86009 -90.4395 11.1552 0.553357 -0.928728 -0.515986 0.511967 -0.952197 -23.0503 0.806897 -0.719501 -3.03768 0.806907 -0.719498 89.5673 -30.9651 -107.239 40.5105 -6.00751 -3.16906 2.83058 -19.6208 -16.3666 -21.9994 1.48851 -16.2914 -84.0314 -51.6467 87.8863 -26.0904 11.372 -11.2834 6.0045 12.0095 -13.7789 1.83273 -0.251459 -8.7514 1.7691 10.9851 -2.92311 -8.45118 10.9955 5.87757 
-265.534 98.1535 -250.584 -99.2285 -57.137 -97.5904 -176.014 -0.737824 92.4789 -19.3805 6.00533 0.532783 70.3999 4.38296 -1.69758 30.428 2.50061 -4.51992 170.32 -3.87941 87.0778 -10.0376 -14.907 -1.47184 68.3286 -4.83746 0.114487 20.8258 -1.13766 3.50973 0.384512 7.81461 -90.5094 11.2461 0.528268 -1.06651 -0.425248 0.480815 -1.08873 -22.9588 0.824355 -0.858464 -2.94614 0.824358 -0.858462 89.6188 -30.7111 -107.237 40.1885 -6.00052 -3.57914 2.813 -19.7121 -16.2415 -23.2915 1.37863 -14.9967 -84.116 -52.7234 87.8791 -25.1579 11.354 -11.8715 6.86301 13.586 -15.2587 3.21008 -0.199854 -6.5777 1.94906 11.0866 -2.24331 -8.2303 11.0052 5.82096 
-265.484 97.9472 -250.181 -98.8191 -57.1146 -97.4013 -176.091 0.207702 92.0431 -21.1273 5.74256 0.438542 71.0496 4.81697 -1.21001 31.7301 2.33884 -4.47935 170.367 -2.66906 86.8154 -12.3896 -14.7744 -1.6058 69.4138 -5.19674 0.433035 21.5544 -1.04251 3.2606 0.36239 7.82711 -90.5124 11.2207 0.483011 -1.06743 -0.450582 0.435553 -1.08765 -22.9839 0.781469 -0.872942 -2.97125 0.781482 -0.872931 89.7665 -30.5492 -107.011 40.1489 -6.34721 -3.91182 2.71814 -19.4321 -16.7709 -24.002 1.21198 -13.7252 -84.101 -52.4755 87.8739 -25.3578 11.1414 -12.0001 7.77785 14.4945 -16.589 2.81 -0.212803 -7.07469 2.52541 11.0622 -2.31107 -8.71464 10.971 5.88014 
-265.057 97.5083 -249.833 -98.1575 -57.944 -97.1561 -175.829 2.48781 91.943 -25.0424 5.97112 0.0682288 72.5323 5.78502 -1.74099 32.1823 2.30193 -4.49543 169.688 -0.416518 85.8742 -16.2052 -15.1837 -1.23477 71.451 -5.87795 0.0685523 21.3055 -0.858738 2.86336 0.351502 7.88239 -90.5979 11.1097 0.422158 -1.23081 -0.561742 0.367577 -1.2482 -23.0938 0.772525 -1.04707 -3.08118 0.772536 -1.04707 90.8826 -29.3385 -105.241 40.912 -6.22279 -4.45286 1.73809 -20.4242 -17.4598 -23.5093 0.852427 -12.1294 -84.745 -52.6819 86.9534 -25.49 11.5811 -13.31 8.05973 15.1998 -16.9705 2.32543 -0.19611 -6.90971 3.52622 10.6942 -1.61822 -8.63196 10.5017 5.81928 
-264.377 96.7691 -249.741 -98.0538 -58.3735 -96.2658 -174.222 6.36158 92.6903 -31.6063 8.50422 -0.803277 73.6369 6.70789 0.950024 33.4069 2.79152 -5.63784 169.781 1.81794 86.2115 -20.4412 -14.3568 -0.900931 73.1491 -6.37764 0.429069 22.451 -0.889526 2.86039 0.331745 7.94972 -90.8164 10.9737 0.282458 -1.6511 -0.698318 0.209515 -1.66194 -23.2266 0.765579 -1.48994 -3.21391 0.765579 -1.48994 90.9875 -28.6286 -105.293 40.5283 -5.27541 -3.95239 0.850307 -22.3232 -18.4905 -23.4837 0.67139 -11.4718 -84.8772 -53.1836 86.8202 -25.4228 12.2195 -13.5293 7.72002 13.8367 -17.831 5.338 -0.213583 -6.19609 4.09332 10.4891 -0.994822 -8.18119 10.1998 6.0466 
-263.317 95.978 -249.624 -96.3155 -58.0049 -94.4076 -172.543 11.6342 93.068 -39.2387 5.54783 -2.2676 73.287 6.35443 -0.549732 32.8352 2.86296 -5.64811 169.709 5.55368 85.8646 -25.1508 -15.7536 -0.646829 74.1526 -6.73787 0.302445 24.1051 -0.767602 2.46021 0.337334 7.98297 -90.924 10.9066 0.244338 -1.86107 -0.765694 0.162216 -1.87003 -23.2918 0.792306 -1.70168 -3.27912 0.792303 -1.70169 91.3564 -28.2053 -104.695 40.2 -5.67337 -4.15055 0.536583 -20.1255 -19.7149 -23.6135 1.21404 -14.0449 -84.7802 -53.0397 86.9444 -25.2576 12.0868 -13.3097 10.3098 17.8935 -20.5811 3.27826 -0.215621 -6.87944 5.76919 10.5854 -1.62823 -8.72021 10.3401 6.74503 
-262.066 94.9387 -249.368 -94.6748 -57.5802 -92.9561 -170.093 17.0523 93.401 -46.9813 1.85828 -4.31369 73.4975 6.37242 -0.109493 34.1003 2.39088 -5.01971 168.744 9.53503 84.6802 -30.1006 -17.6501 0.0660938 76.1903 -7.6308 0.312913 24.4095 -0.753332 2.39204 0.28857 8.0614 -91.069 10.7469 0.0817723 -2.13312 -0.925835 -0.0121668 -2.13466 -23.4482 0.71895 -2.01003 -3.43553 0.718964 -2.01002 91.6035 -27.7505 -104.349 39.0182 -5.01093 -4.41504 0.0696221 -21.0985 -21.7036 -24.3624 0.934077 -12.3822 -85.34 -52.9206 86.1128 -25.8736 11.6785 -12.5107 12.2047 19.8393 -22.7876 4.11406 -0.177311 -5.95345 8.2368 10.8176 -1.47269 -10.1835 10.4605 6.7569 
-260.653 93.5335 -248.895 -94.3357 -57.132 -93.0534 -167.437 21.6568 93.8974 -54.4232 -0.274859 -5.47766 74.5436 6.71271 -0.471907 32.8285 0.926839 -2.11816 168.397 13.2958 83.1295 -36.2121 -19.2868 0.00438422 78.6937 -8.78054 -0.0446652 25.6438 -0.656661 2.06632 0.0847881 8.26284 -91.1109 10.3397 -0.339421 -2.17733 -1.333 -0.434912 -2.1603 -23.8536 0.330474 -2.17871 -3.84098 0.330476 -2.17871 91.814 -27.6594 -103.948 37.9842 -3.66478 -5.19319 -1.3774 -22.8737 -23.8743 -25.1578 0.718121 -11.3224 -85.483 -51.3146 85.6908 -26.6486 13.082 -11.7774 13.1579 20.5332 -24.9292 5.46244 -0.132685 -4.97135 10.7032 11.5657 -1.75152 -11.1117 11.1322 7.74061 
-259.11 91.9996 -248.33 -93.0499 -56.7134 -92.5713 -165.11 27.3821 95.6045 -61.5994 -2.78081 -5.6947 75.2394 6.5459 -3.3049 32.3642 -0.638198 0.810032 168.035 17.566 81.3071 -41.9047 -20.571 -0.0790173 80.7313 -9.6393 0.51966 26.4773 -0.532881 1.67552 -0.132895 8.38041 -91.167 10.0996 -0.79644 -2.25019 -1.57295 -0.894694 -2.21299 -24.0926 -0.0835425 -2.38545 -4.07992 -0.0835638 -2.38547 91.7346 -27.5831 -104.14 36.8036 -1.69576 -4.9458 -3.4049 -23.9639 -26.9898 -25.2488 0.766853 -11.7294 -85.8267 -51.3034 85.1788 -24.3557 14.645 -12.1351 12.7114 21.2847 -24.6456 6.7899 -0.04376 -3.78632 11.5537 12.6605 -1.92987 -11.0278 12.0599 10.2022 
-257.523 90.0279 -247.333 -92.6055 -55.4651 -93.3087 -163.637 31.7806 98.9608 -66.6098 -4.55976 -5.06693 77.2313 7.14657 -4.34317 32.0872 0.793725 -1.81805 168.121 21.8278 78.6898 -48.4657 -22.956 -0.678676 83.874 -11.2759 -0.119466 24.8812 -1.02057 3.02113 -0.268519 8.53548 -91.1502 9.7876 -1.05617 -2.19734 -1.88468 -1.15182 -2.14878 -24.4056 -0.34715 -2.41304 -4.39293 -0.347168 -2.41307 91.8213 -27.55 -103.971 36.2142 -0.16586 -4.50925 -4.63733 -21.1092 -29.8184 -25.9148 1.18598 -13.2189 -86.3296 -49.6816 84.1874 -25.7223 12.4592 -11.7121 14.5017 25.2629 -24.1593 10.322 0.164233 -2.04466 11.8174 13.6269 -1.58592 -10.8513 12.793 12.1236 
